<svg width="100%" height="100%" viewBox="0 0 648 648" version="1.1" xmlns="http://www.w3.org/2000/svg"
    xmlns:xlink="http://www.w3.org/1999/xlink" xml:space="preserve" xmlns:serif="http://www.serif.com/"
    style="fill-rule:evenodd;clip-rule:evenodd;stroke-linejoin:round;stroke-miterlimit:2;">
    <path
        d="M277.209,454.696c9.936,1.859 36.357,2.23 58.446,-5.724c12.429,-4.476 23.588,-11.561 28.714,-23.236c3.403,-7.751 4.038,-17.424 1.012,-29.434c-0.944,-3.746 1.331,-7.554 5.078,-8.498c3.746,-0.944 7.554,1.331 8.498,5.078c3.958,15.708 2.682,28.343 -1.769,38.482c-6.656,15.161 -20.65,24.968 -36.789,30.78c-25.228,9.084 -55.485,8.372 -66.325,6.204c-8.686,-1.737 -11.973,-5.978 -12.849,-9.492c-0.904,-3.624 0.412,-8.58 5.363,-13.399c12.327,-11.997 52.162,-29.271 60.059,-34.091c0.362,-0.222 0.08,-0.695 0.077,-1.166c-0.011,-1.61 -0.407,-3.46 -0.979,-5.518c-1.857,-6.683 -5.566,-14.975 -8.857,-23.903c-6.828,-18.521 -11.301,-39.393 -0.203,-55.943c7.283,-10.862 21.496,-20.338 47.535,-25.485c3.79,-0.75 7.476,1.719 8.225,5.509c0.749,3.79 -1.72,7.475 -5.51,8.225c-24.093,4.763 -36.152,12.902 -40.783,23.484c-3.35,7.653 -2.675,16.228 -0.687,24.717c2.266,9.679 6.33,19.257 9.582,27.621c3.256,8.375 5.639,15.755 5.677,21.196c0.041,5.985 -2.172,10.397 -6.783,13.212c-6.574,4.013 -36.033,16.741 -51.851,27.642c-1.87,1.288 -3.528,2.537 -4.881,3.739Z" />
    <path
        d="M275.01,125.118c0.727,-0.213 1.473,-0.447 2.185,-0.698c16.692,-5.874 48.381,-21.524 75.231,-29.658c75.446,-22.856 124.68,12.214 142.904,26.856c46.611,37.451 57.942,83.58 62.068,95.7c15.88,46.642 14.724,94.954 8.047,146.668c-10.54,81.632 -45.855,124.856 -67.555,144.059c-70.06,61.998 -120.323,55.888 -161.738,48.339c-39.724,-7.241 -62.708,-26.726 -66.912,-46.368c-4.336,-20.265 9.942,-43.325 49.723,-56.24c3.674,-1.193 7.626,0.822 8.819,4.496c1.193,3.675 -0.822,7.627 -4.496,8.82c-15.957,5.18 -27.214,11.937 -33.948,19.601c-5.696,6.483 -7.879,13.518 -6.408,20.393c1.245,5.816 4.947,11.387 10.656,16.428c9.733,8.594 25.024,15.442 45.077,19.097c38.413,7.002 84.967,12.453 149.949,-45.05c20.36,-18.017 53.059,-58.777 62.948,-135.367c6.39,-49.486 7.781,-95.732 -7.415,-140.364c-3.844,-11.29 -14.164,-54.412 -57.584,-89.298c-16.586,-13.326 -61.409,-45.174 -130.076,-24.371c-30.743,9.313 -67.828,28.432 -81.572,31.549c-2.247,0.51 -4.102,0.666 -5.495,0.578l-2.773,-0.539l-2.2,-1.122l-1.448,-1.297l-1.152,-1.692l-0.681,-1.843l-0.236,-1.735c-0.318,-8.989 1.329,-18.299 2.222,-25.61c0.171,-1.405 0.254,-3.002 0.293,-4.351c-2.025,0.933 -4.468,2.346 -7.424,4.272c-5.72,3.728 -9.388,8.21 -13.206,11.497c-3.645,3.138 -7.43,5.414 -12.112,6.307c-21.761,4.149 -46.735,-0.951 -70.767,-0.587c-21.496,0.326 -42.232,5.501 -58.334,29.245c-7.757,11.438 -12.755,28.023 -7.559,46.592c5.503,19.666 22.133,41.132 57.114,61.658c45.194,26.518 62.995,55.312 78.524,78.746c9.374,14.146 17.685,26.275 32.058,33.971c15.11,8.09 23.328,15.04 30.214,20.611c8.928,7.225 15.312,11.665 35.375,12.705c3.858,0.2 6.828,3.495 6.628,7.353c-0.2,3.858 -3.495,6.828 -7.353,6.628c-24.681,-1.279 -32.473,-6.914 -43.457,-15.802c-6.389,-5.17 -13.995,-11.646 -28.016,-19.153c-16.474,-8.821 -26.375,-22.366 -37.119,-38.58c-14.647,-22.104 -31.31,-49.391 -73.939,-74.404c-39.328,-23.077 -57.325,-47.851 -63.511,-69.96c-6.493,-23.206 -0.24,-43.929 9.454,-58.223c19.291,-28.446 43.956,-34.995 69.709,-35.385c23.215,-0.352 47.336,4.841 68.356,0.832c2.982,-0.568 5.045,-2.578 7.38,-4.777c3.637,-3.426 7.501,-7.473 12.917,-11.003c6.062,-3.95 10.557,-6.093 13.77,-6.963c2.032,-0.549 3.76,-0.681 5.21,-0.566l1.902,0.311l1.917,0.685l2.822,1.975l1.894,2.547c0.975,1.808 1.605,4.259 1.694,7.292c0.174,5.895 -2.016,15.384 -2.574,25.195Z" />
    <path
        d="M210.223,317.004c3.861,-0.131 7.102,2.897 7.234,6.758c0.131,3.861 -2.897,7.103 -6.758,7.234c-2.574,0.087 -6.466,-0.768 -10.98,-1.36c-4.515,-0.592 -10.035,-0.93 -14.942,2.702c-3.834,2.838 -7.128,7.873 -9.734,16.079c-1.169,3.682 -5.108,5.722 -8.791,4.553c-3.682,-1.17 -5.722,-5.108 -4.552,-8.791c3.799,-11.963 9.158,-18.956 14.748,-23.094c7.021,-5.197 14.668,-6.156 21.522,-5.691c5.076,0.344 9.525,1.703 12.253,1.61Z" />
</svg>